<?xml version="1.0" encoding="UTF-8" standalone="no"?>
<!-- Created with Inkscape (http://www.inkscape.org/) -->

<svg
   xmlns:dc="http://purl.org/dc/elements/1.1/"
   xmlns:cc="http://creativecommons.org/ns#"
   xmlns:rdf="http://www.w3.org/1999/02/22-rdf-syntax-ns#"
   xmlns:svg="http://www.w3.org/2000/svg"
   xmlns="http://www.w3.org/2000/svg"
   xmlns:sodipodi="http://sodipodi.sourceforge.net/DTD/sodipodi-0.dtd"
   xmlns:inkscape="http://www.inkscape.org/namespaces/inkscape"
   width="800mm"
   height="151mm"
   viewBox="0 0 800 151"
   version="1.1"
   id="svg8"
   inkscape:version="0.92.4 (5da689c313, 2019-01-14)"
   sodipodi:docname="pharmalinelogo-2.svg">
  <defs
     id="defs2">
    <clipPath
       id="clipPath18"
       clipPathUnits="userSpaceOnUse">
      <path
         inkscape:connector-curvature="0"
         id="path16"
         d="M 0,2324.409 H 4677.166 V 0 H 0 Z" />
    </clipPath>
    <clipPath
       id="clipPath1045"
       clipPathUnits="userSpaceOnUse">
      <path
         inkscape:connector-curvature="0"
         id="path1043"
         d="M 0,2324.409 H 4677.166 V 0 H 0 Z" />
    </clipPath>
  </defs>
  <sodipodi:namedview
     id="base"
     pagecolor="#ffffff"
     bordercolor="#666666"
     borderopacity="1.0"
     inkscape:pageopacity="0.0"
     inkscape:pageshadow="2"
     inkscape:zoom="0.35"
     inkscape:cx="1399.3643"
     inkscape:cy="560"
     inkscape:document-units="mm"
     inkscape:current-layer="layer1"
     showgrid="false"
     inkscape:window-width="1920"
     inkscape:window-height="1017"
     inkscape:window-x="-8"
     inkscape:window-y="-8"
     inkscape:window-maximized="1" />
  <metadata
     id="metadata5">
    <rdf:RDF>
      <cc:Work
         rdf:about="">
        <dc:format>image/svg+xml</dc:format>
        <dc:type
           rdf:resource="http://purl.org/dc/dcmitype/StillImage" />
        <dc:title></dc:title>
      </cc:Work>
    </rdf:RDF>
  </metadata>
  <g
     inkscape:label="Layer 1"
     inkscape:groupmode="layer"
     id="layer1"
     transform="translate(0,-146)">
    <g
       transform="matrix(0.35277777,0,0,-0.35277777,-424.99688,657.85641)"
       inkscape:label="pharmaline-logo-son"
       id="g1037">
      <g
         id="g1039">
        <g
           clip-path="url(#clipPath1045)"
           id="g1041">
          <g
             transform="translate(1304.8324,1304.033)"
             id="g1047">
            <path
               inkscape:connector-curvature="0"
               id="path1049"
               style="fill:#244584;fill-opacity:1;fill-rule:nonzero;stroke:none"
               d="m 0,0 c 28.048,0 41.867,15.851 41.867,40.644 0,28.049 -17.074,44.71 -44.71,44.71 H -25.611 V 0 Z M -99.593,-142.277 V 121.138 H 21.14 c 56.097,0 97.147,-29.685 97.147,-84.958 0,-54.064 -43.082,-71.948 -85.362,-71.948 h -58.536 v -106.509 z" />
          </g>
          <g
             transform="translate(1455.6945,1161.7555)"
             id="g1051">
            <path
               inkscape:connector-curvature="0"
               id="path1053"
               style="fill:#244584;fill-opacity:1;fill-rule:nonzero;stroke:none"
               d="M 0,0 V 284.554 H 58.536 V 114.626 h 40.246 v 61.8 h 58.536 V 0 H 98.782 V 88.609 H 58.536 V 0 Z" />
          </g>
          <g
             transform="translate(1689.0831,1218.6633)"
             id="g1055">
            <path
               inkscape:connector-curvature="0"
               id="path1057"
               style="fill:#244584;fill-opacity:1;fill-rule:nonzero;stroke:none"
               d="m 0,0 h 44.305 l -21.14,71.552 h -0.81 z M -45.941,-56.908 -0.404,85.766 c 6.495,20.743 14.221,35.372 38.61,35.372 21.545,0 29.272,-15.851 34.958,-33.735 l 47.56,-144.311 H 62.189 L 52.032,-24.38 H -8.132 l -10.976,-32.528 z" />
          </g>
          <g
             transform="translate(1838.3093,1338.1807)"
             id="g1059">
            <path
               inkscape:connector-curvature="0"
               id="path1061"
               style="fill:#244584;fill-opacity:1;fill-rule:nonzero;stroke:none"
               d="m 0,0 h 92.27 c 30.892,0 58.942,-20.33 58.942,-53.668 0,-22.759 -10.57,-39.023 -33.331,-44.709 l 50.809,-78.049 h -65.85 l -40.651,86.578 h 0.817 c 21.546,0 29.67,13.007 29.67,33.75 0,20.314 -12.595,31.702 -27.636,31.702 h -6.504 v -152.03 H 0 Z" />
          </g>
          <g
             transform="translate(2035.5012,1161.7555)"
             id="g1063">
            <path
               inkscape:connector-curvature="0"
               id="path1065"
               style="fill:#244584;fill-opacity:1;fill-rule:nonzero;stroke:none"
               d="m 0,0 v 147.566 c 0,21.124 12.603,30.48 35.37,30.48 25.612,0 30.488,-8.529 39.43,-30.48 L 95.122,98.775 118.7,156.906 c 6.099,14.643 19.916,21.14 34.147,21.14 27.644,0 34.553,-11.388 34.553,-30.48 V 0 h -58.536 v 121.551 h -0.818 L 82.518,0 H 77.237 L 30.082,121.551 h -0.81 L 29.272,0 Z" />
          </g>
          <g
             transform="translate(2298.9719,1218.6633)"
             id="g1067">
            <path
               inkscape:connector-curvature="0"
               id="path1069"
               style="fill:#244584;fill-opacity:1;fill-rule:nonzero;stroke:none"
               d="m 0,0 h 44.305 l -21.14,71.552 h -0.81 z m -45.933,-56.908 45.52,142.674 c 6.512,20.743 14.23,35.372 38.619,35.372 21.545,0 29.272,-15.851 34.958,-33.735 l 47.56,-144.311 H 62.189 L 52.031,-24.38 H -8.132 l -10.975,-32.528 z" />
          </g>
          <g
             transform="translate(2508.7588,1446.3104)"
             id="g1071">
            <path
               inkscape:connector-curvature="0"
               id="path1073"
               style="fill:#244584;fill-opacity:1;fill-rule:nonzero;stroke:none"
               d="m 0,0 v -234.143 c 0,-18.297 2.438,-24.397 15.447,-24.397 h 24.792 v -26.015 h -58.131 c -26.826,0 -40.644,10.562 -40.644,35.371 V 0 Z" />
          </g>
          <path
             inkscape:connector-curvature="0"
             id="path1075"
             style="fill:#244584;fill-opacity:1;fill-rule:nonzero;stroke:none"
             d="m 2578.302,1338.181 h 58.535 v -176.426 h -58.535 z m 59.345,71.139 c 0,-16.264 -13.817,-30.082 -30.082,-30.082 -16.256,0 -30.081,13.818 -30.081,30.082 0,16.247 13.825,30.081 30.081,30.081 16.265,0 30.082,-13.834 30.082,-30.081" />
          <g
             transform="translate(2827.0964,1189.3915)"
             id="g1077">
            <path
               inkscape:connector-curvature="0"
               id="path1079"
               style="fill:#244584;fill-opacity:1;fill-rule:nonzero;stroke:none"
               d="m 0,0 c 0,-15.438 -3.248,-29.256 -21.545,-29.256 -12.19,0 -18.289,4.463 -24.388,14.627 l -61.792,99.998 h -0.81 V -27.636 h -29.264 v 145.12 c 0,14.231 2.844,32.925 30.488,32.925 17.478,0 26.015,-8.529 34.957,-22.759 l 42.272,-67.074 h 0.818 v 89.833 H 0 Z" />
          </g>
          <g
             transform="translate(2992.9993,1236.5474)"
             id="g1081">
            <path
               inkscape:connector-curvature="0"
               id="path1083"
               style="fill:#244584;fill-opacity:1;fill-rule:nonzero;stroke:none"
               d="m 0,0 h -55.288 v -36.578 c 0,-7.719 4.885,-12.198 14.637,-12.198 H 9.346 v -26.016 h -90.65 c -18.694,0 -32.519,13.421 -32.519,34.958 v 103.65 c 0,23.999 18.701,37.817 39.841,37.817 H 6.504 V 75.617 h -51.222 c -7.719,0 -10.57,-6.099 -10.57,-15.851 V 26.016 H 0 Z" />
          </g>
          <g
             transform="translate(3103.2766,1262.1287)"
             id="g1085">
            <path
               inkscape:connector-curvature="0"
               id="path1087"
               style="fill:#244584;fill-opacity:1;fill-rule:nonzero;stroke:none"
               d="M 0,0 42.692,-43.773 245.314,157.896 H 161.283 Z" />
          </g>
          <g
             transform="translate(3164.2664,1199.1058)"
             id="g1089">
            <path
               inkscape:connector-curvature="0"
               id="path1091"
               style="fill:#244584;fill-opacity:1;fill-rule:nonzero;stroke:none"
               d="m 0,0 221.595,220.917 h 86.064 L 42.692,-44.048 Z" />
          </g>
          <g
             transform="translate(3155.9192,1357.2139)"
             id="g1093">
            <path
               inkscape:connector-curvature="0"
               id="path1095"
               style="fill:#244584;fill-opacity:1;fill-rule:nonzero;stroke:none"
               d="m 0,0 c 0,-36.605 -29.673,-66.279 -66.279,-66.279 -36.604,0 -66.278,29.674 -66.278,66.279 0,36.604 29.674,66.278 66.278,66.278 C -29.673,66.278 0,36.604 0,0" />
          </g>
          <g
             transform="translate(3071.8464,1363.5781)"
             id="g1097">
            <path
               inkscape:connector-curvature="0"
               id="path1099"
               style="fill:#ffffff;fill-opacity:1;fill-rule:nonzero;stroke:none"
               d="m 0,0 h 22.242 c 4.728,0 8.428,0.486 11.095,1.463 2.666,0.977 4.693,2.543 6.081,4.695 1.386,2.15 2.079,4.489 2.079,7.014 0,3.7 -1.341,6.737 -4.025,9.119 -2.686,2.385 -6.928,3.576 -12.723,3.576 H 0 Z m -10.348,-43.686 v 78.193 h 34.671 c 6.968,0 12.268,-0.703 15.895,-2.107 3.627,-1.405 6.524,-3.883 8.694,-7.438 2.168,-3.558 3.254,-7.489 3.254,-11.79 0,-5.547 -1.797,-10.224 -5.388,-14.026 -3.593,-3.806 -9.139,-6.226 -16.641,-7.254 2.737,-1.318 4.818,-2.616 6.24,-3.896 3.021,-2.773 5.884,-6.242 8.588,-10.399 L 58.566,-43.686 H 45.551 l -10.348,16.265 c -3.023,4.695 -5.513,8.286 -7.467,10.779 -1.956,2.488 -3.705,4.229 -5.255,5.222 -1.544,0.999 -3.119,1.691 -4.719,2.084 -1.173,0.246 -3.094,0.374 -5.761,0.374 H 0 v -34.724 z" />
          </g>
          <g
             transform="translate(1216.5752,1065.8474)"
             id="g1101">
            <path
               inkscape:connector-curvature="0"
               id="path1103"
               style="fill:#244584;fill-opacity:1;fill-rule:nonzero;stroke:none"
               d="m 0,0 c 0,-6.66 1.791,-11.905 5.371,-15.736 3.581,-3.832 8.072,-5.748 13.475,-5.748 5.503,0 10.032,1.934 13.587,5.805 3.555,3.868 5.333,9.36 5.333,16.471 0,4.498 -0.76,8.424 -2.28,11.778 -1.52,3.354 -3.745,5.955 -6.671,7.803 -2.928,1.845 -6.213,2.769 -9.857,2.769 -5.176,0 -9.63,-1.777 -13.36,-5.332 C 1.867,14.253 0,8.316 0,0 m -7.538,0.113 c 0,9.172 2.463,16.352 7.387,21.541 4.925,5.187 11.283,7.783 19.072,7.783 5.101,0 9.699,-1.219 13.795,-3.657 4.096,-2.438 7.217,-5.836 9.366,-10.195 2.148,-4.359 3.222,-9.304 3.222,-14.831 0,-5.604 -1.13,-10.616 -3.392,-15.039 -2.261,-4.423 -5.464,-7.77 -9.611,-10.043 -4.146,-2.276 -8.618,-3.412 -13.417,-3.412 -5.203,0 -9.851,1.256 -13.947,3.769 -4.096,2.511 -7.197,5.942 -9.308,10.29 -2.111,4.346 -3.167,8.944 -3.167,13.794" />
          </g>
          <g
             transform="translate(1272.9247,1039.0496)"
             id="g1105">
            <path
               inkscape:connector-curvature="0"
               id="path1107"
               style="fill:#244584;fill-opacity:1;fill-rule:nonzero;stroke:none"
               d="M 0,0 V 55.254 H 7.5 L 36.523,11.872 v 43.382 h 7.01 V 0 h -7.5 L 7.011,43.42 V 0 Z" />
          </g>
          <g
             transform="translate(1369.8676,1058.423)"
             id="g1109">
            <path
               inkscape:connector-curvature="0"
               id="path1111"
               style="fill:#244584;fill-opacity:1;fill-rule:nonzero;stroke:none"
               d="M 0,0 7.312,-1.847 C 5.78,-7.853 3.021,-12.433 -0.961,-15.585 c -3.982,-3.154 -8.852,-4.731 -14.606,-4.731 -5.955,0 -10.797,1.213 -14.529,3.638 -3.731,2.424 -6.571,5.936 -8.518,10.533 -1.947,4.599 -2.922,9.537 -2.922,14.813 0,5.753 1.099,10.774 3.299,15.058 2.199,4.284 5.327,7.538 9.385,9.762 4.058,2.223 8.524,3.336 13.399,3.336 5.528,0 10.177,-1.408 13.945,-4.222 3.77,-2.815 6.395,-6.771 7.878,-11.873 l -7.2,-1.696 c -1.281,4.02 -3.14,6.949 -5.578,8.782 -2.437,1.834 -5.502,2.751 -9.196,2.751 -4.247,0 -7.796,-1.017 -10.647,-3.053 -2.852,-2.035 -4.856,-4.768 -6.012,-8.197 -1.156,-3.429 -1.734,-6.967 -1.734,-10.611 0,-4.698 0.684,-8.8 2.054,-12.305 1.369,-3.506 3.499,-6.125 6.389,-7.858 2.889,-1.735 6.017,-2.601 9.384,-2.601 4.096,0 7.564,1.18 10.404,3.543 C -2.927,-8.155 -1.006,-4.65 0,0" />
          </g>
          <g
             transform="translate(1393.2002,1065.8474)"
             id="g1113">
            <path
               inkscape:connector-curvature="0"
               id="path1115"
               style="fill:#244584;fill-opacity:1;fill-rule:nonzero;stroke:none"
               d="m 0,0 c 0,-6.66 1.791,-11.905 5.371,-15.736 3.581,-3.832 8.072,-5.748 13.475,-5.748 5.503,0 10.032,1.934 13.587,5.805 3.555,3.868 5.333,9.36 5.333,16.471 0,4.498 -0.76,8.424 -2.28,11.778 -1.52,3.354 -3.745,5.955 -6.671,7.803 -2.928,1.845 -6.213,2.769 -9.857,2.769 -5.176,0 -9.63,-1.777 -13.36,-5.332 C 1.867,14.253 0,8.316 0,0 m -7.538,0.113 c 0,9.172 2.462,16.352 7.387,21.541 4.925,5.187 11.283,7.783 19.072,7.783 5.1,0 9.699,-1.219 13.795,-3.657 4.096,-2.438 7.217,-5.836 9.366,-10.195 2.148,-4.359 3.222,-9.304 3.222,-14.831 0,-5.604 -1.13,-10.616 -3.392,-15.039 -2.261,-4.423 -5.464,-7.77 -9.611,-10.043 -4.146,-2.276 -8.618,-3.412 -13.417,-3.412 -5.203,0 -9.851,1.256 -13.947,3.769 -4.096,2.511 -7.197,5.942 -9.308,10.29 -2.111,4.346 -3.167,8.944 -3.167,13.794" />
          </g>
          <g
             transform="translate(1449.3246,1039.0496)"
             id="g1117">
            <path
               inkscape:connector-curvature="0"
               id="path1119"
               style="fill:#244584;fill-opacity:1;fill-rule:nonzero;stroke:none"
               d="M 0,0 V 55.254 H 7.312 V 6.52 H 34.525 V 0 Z" />
          </g>
          <g
             transform="translate(1499.5675,1065.8474)"
             id="g1121">
            <path
               inkscape:connector-curvature="0"
               id="path1123"
               style="fill:#244584;fill-opacity:1;fill-rule:nonzero;stroke:none"
               d="m 0,0 c 0,-6.66 1.791,-11.905 5.371,-15.736 3.581,-3.832 8.072,-5.748 13.475,-5.748 5.503,0 10.032,1.934 13.587,5.805 3.555,3.868 5.333,9.36 5.333,16.471 0,4.498 -0.76,8.424 -2.28,11.778 -1.52,3.354 -3.745,5.955 -6.671,7.803 -2.928,1.845 -6.213,2.769 -9.856,2.769 -5.177,0 -9.631,-1.777 -13.361,-5.332 C 1.867,14.253 0,8.316 0,0 m -7.538,0.113 c 0,9.172 2.463,16.352 7.387,21.541 4.925,5.187 11.283,7.783 19.072,7.783 5.101,0 9.699,-1.219 13.795,-3.657 4.096,-2.438 7.217,-5.836 9.366,-10.195 2.148,-4.359 3.222,-9.304 3.222,-14.831 0,-5.604 -1.13,-10.616 -3.392,-15.039 -2.261,-4.423 -5.464,-7.77 -9.611,-10.043 -4.146,-2.276 -8.618,-3.412 -13.417,-3.412 -5.203,0 -9.851,1.256 -13.947,3.769 -4.096,2.511 -7.197,5.942 -9.308,10.29 -2.111,4.346 -3.167,8.944 -3.167,13.794" />
          </g>
          <g
             transform="translate(1581.8491,1060.7218)"
             id="g1125">
            <path
               inkscape:connector-curvature="0"
               id="path1127"
               style="fill:#244584;fill-opacity:1;fill-rule:nonzero;stroke:none"
               d="M 0,0 V 6.482 L 23.406,6.52 v -20.504 c -3.594,-2.865 -7.3,-5.018 -11.119,-6.463 -3.82,-1.445 -7.74,-2.167 -11.76,-2.167 -5.427,0 -10.359,1.162 -14.793,3.486 -4.435,2.324 -7.783,5.685 -10.045,10.082 -2.262,4.398 -3.392,9.31 -3.392,14.737 0,5.377 1.124,10.396 3.374,15.057 2.248,4.662 5.484,8.123 9.706,10.384 4.22,2.261 9.083,3.393 14.586,3.393 3.995,0 7.606,-0.647 10.836,-1.941 3.227,-1.295 5.759,-3.098 7.594,-5.409 1.834,-2.312 3.228,-5.328 4.184,-9.045 l -6.596,-1.81 c -0.829,2.813 -1.86,5.025 -3.091,6.633 -1.231,1.608 -2.991,2.896 -5.276,3.865 -2.287,0.965 -4.825,1.45 -7.614,1.45 -3.342,0 -6.232,-0.509 -8.669,-1.526 -2.438,-1.017 -4.404,-2.357 -5.898,-4.015 -1.496,-1.658 -2.657,-3.481 -3.487,-5.465 -1.408,-3.418 -2.111,-7.122 -2.111,-11.117 0,-4.927 0.849,-9.047 2.545,-12.364 1.696,-3.317 4.164,-5.78 7.405,-7.388 3.242,-1.609 6.685,-2.411 10.328,-2.411 3.165,0 6.257,0.608 9.271,1.827 3.016,1.219 5.303,2.519 6.86,3.902 V 0 Z" />
          </g>
          <g
             transform="translate(1633.2986,1039.0496)"
             id="g1129">
            <path
               inkscape:connector-curvature="0"
               id="path1131"
               style="fill:#244584;fill-opacity:1;fill-rule:nonzero;stroke:none"
               d="M 0,0 V 23.406 L -21.295,55.254 H -12.4 L -1.507,38.596 c 2.009,-3.116 3.882,-6.232 5.616,-9.348 1.658,2.889 3.668,6.143 6.03,9.762 l 10.705,16.244 h 8.517 L 7.312,23.406 V 0 Z" />
          </g>
          <g
             transform="translate(1738.7291,1039.0496)"
             id="g1133">
            <path
               inkscape:connector-curvature="0"
               id="path1135"
               style="fill:#244584;fill-opacity:1;fill-rule:nonzero;stroke:none"
               d="M 0,0 V 55.254 H 11.006 L 24.084,16.131 c 1.206,-3.644 2.085,-6.369 2.638,-8.178 0.628,2.01 1.609,4.962 2.941,8.857 l 13.229,38.444 h 9.837 V 0 H 45.68 V 46.246 L 29.624,0 H 23.028 L 7.048,47.037 V 0 Z" />
          </g>
          <path
             inkscape:connector-curvature="0"
             id="path1137"
             style="fill:#244584;fill-opacity:1;fill-rule:nonzero;stroke:none"
             d="m 1806.197,1094.304 h 7.312 v -55.255 h -7.312 z" />
          <g
             transform="translate(1867.5219,1058.423)"
             id="g1139">
            <path
               inkscape:connector-curvature="0"
               id="path1141"
               style="fill:#244584;fill-opacity:1;fill-rule:nonzero;stroke:none"
               d="m 0,0 7.312,-1.847 c -1.533,-6.006 -4.291,-10.586 -8.273,-13.738 -3.982,-3.154 -8.852,-4.731 -14.606,-4.731 -5.955,0 -10.797,1.213 -14.529,3.638 -3.731,2.424 -6.571,5.936 -8.518,10.533 -1.948,4.599 -2.922,9.537 -2.922,14.813 0,5.753 1.099,10.774 3.299,15.058 2.199,4.284 5.327,7.538 9.385,9.762 4.058,2.223 8.524,3.336 13.399,3.336 5.528,0 10.177,-1.408 13.945,-4.222 3.77,-2.815 6.395,-6.771 7.878,-11.873 l -7.2,-1.696 c -1.281,4.02 -3.14,6.949 -5.578,8.782 -2.437,1.834 -5.503,2.751 -9.196,2.751 -4.247,0 -7.796,-1.017 -10.647,-3.053 -2.852,-2.035 -4.856,-4.768 -6.013,-8.197 -1.155,-3.429 -1.733,-6.967 -1.733,-10.611 0,-4.698 0.684,-8.8 2.054,-12.305 1.369,-3.506 3.499,-6.125 6.389,-7.858 2.889,-1.735 6.017,-2.601 9.384,-2.601 4.096,0 7.564,1.18 10.404,3.543 C -2.927,-8.155 -1.006,-4.65 0,0" />
          </g>
          <g
             transform="translate(1892.9652,1069.918)"
             id="g1143">
            <path
               inkscape:connector-curvature="0"
               id="path1145"
               style="fill:#244584;fill-opacity:1;fill-rule:nonzero;stroke:none"
               d="m 0,0 h 15.717 c 3.341,0 5.955,0.345 7.84,1.036 1.885,0.692 3.317,1.796 4.296,3.318 0.981,1.52 1.471,3.171 1.471,4.956 0,2.613 -0.949,4.761 -2.846,6.446 -1.897,1.682 -4.894,2.525 -8.989,2.525 H 0 Z m -7.312,-30.868 v 55.253 h 24.499 c 4.924,0 8.669,-0.496 11.232,-1.487 2.563,-0.994 4.611,-2.746 6.144,-5.259 1.532,-2.512 2.299,-5.289 2.299,-8.329 0,-3.92 -1.27,-7.224 -3.807,-9.912 -2.539,-2.69 -6.458,-4.399 -11.76,-5.128 1.935,-0.93 3.404,-1.845 4.41,-2.75 2.136,-1.96 4.158,-4.41 6.069,-7.35 l 9.61,-15.038 h -9.195 l -7.313,11.496 c -2.136,3.316 -3.895,5.853 -5.277,7.612 -1.382,1.76 -2.619,2.991 -3.712,3.694 -1.093,0.704 -2.206,1.193 -3.336,1.47 -0.829,0.176 -2.186,0.264 -4.07,0.264 H 0 v -24.536 z" />
          </g>
          <g
             transform="translate(2014.59,1045.5698)"
             id="g1147">
            <path
               inkscape:connector-curvature="0"
               id="path1149"
               style="fill:#244584;fill-opacity:1;fill-rule:nonzero;stroke:none"
               d="m 0,0 h 13.757 c 2.362,0 4.02,0.087 4.975,0.264 1.683,0.302 3.091,0.804 4.222,1.508 1.13,0.703 2.06,1.727 2.788,3.072 0.729,1.343 1.093,2.896 1.093,4.654 0,2.06 -0.527,3.85 -1.582,5.372 -1.056,1.519 -2.52,2.587 -4.392,3.203 -1.871,0.615 -4.567,0.923 -8.084,0.923 L 0,18.996 Z m 0,25.517 h 11.948 c 3.241,0 5.565,0.213 6.973,0.64 1.859,0.554 3.26,1.471 4.202,2.752 0.942,1.282 1.413,2.889 1.413,4.823 0,1.835 -0.44,3.45 -1.318,4.844 -0.88,1.395 -2.137,2.35 -3.77,2.865 -1.633,0.515 -4.435,0.773 -8.405,0.773 L 0,42.214 Z M -7.312,-6.52 v 55.253 h 20.73 c 4.221,0 7.607,-0.558 10.157,-1.676 2.55,-1.119 4.548,-2.841 5.993,-5.164 1.446,-2.324 2.167,-4.755 2.167,-7.292 0,-2.363 -0.64,-4.587 -1.921,-6.672 -1.283,-2.086 -3.218,-3.769 -5.805,-5.051 3.341,-0.98 5.91,-2.651 7.707,-5.012 1.797,-2.363 2.696,-5.152 2.696,-8.368 0,-2.588 -0.547,-4.995 -1.64,-7.218 -1.093,-2.223 -2.444,-3.939 -4.051,-5.145 -1.609,-1.206 -3.625,-2.116 -6.05,-2.732 -2.425,-0.615 -5.396,-0.923 -8.914,-0.923 z" />
          </g>
          <path
             inkscape:connector-curvature="0"
             id="path1151"
             style="fill:#244584;fill-opacity:1;fill-rule:nonzero;stroke:none"
             d="m 2062.006,1094.304 h 7.312 v -55.255 h -7.312 z" />
          <g
             transform="translate(2089.2219,1065.8474)"
             id="g1153">
            <path
               inkscape:connector-curvature="0"
               id="path1155"
               style="fill:#244584;fill-opacity:1;fill-rule:nonzero;stroke:none"
               d="m 0,0 c 0,-6.66 1.791,-11.905 5.371,-15.736 3.581,-3.832 8.072,-5.748 13.475,-5.748 5.503,0 10.032,1.934 13.587,5.805 3.555,3.868 5.333,9.36 5.333,16.471 0,4.498 -0.76,8.424 -2.28,11.778 -1.52,3.354 -3.745,5.955 -6.671,7.803 -2.928,1.845 -6.213,2.769 -9.857,2.769 -5.176,0 -9.63,-1.777 -13.361,-5.332 C 1.867,14.253 0,8.316 0,0 m -7.538,0.113 c 0,9.172 2.462,16.352 7.387,21.541 4.925,5.187 11.283,7.783 19.072,7.783 5.1,0 9.699,-1.219 13.795,-3.657 4.096,-2.438 7.217,-5.836 9.366,-10.195 2.148,-4.359 3.222,-9.304 3.222,-14.831 0,-5.604 -1.13,-10.616 -3.392,-15.039 -2.262,-4.423 -5.464,-7.77 -9.611,-10.043 -4.146,-2.276 -8.619,-3.412 -13.417,-3.412 -5.203,0 -9.851,1.256 -13.947,3.769 -4.096,2.511 -7.197,5.942 -9.309,10.29 -2.11,4.346 -3.166,8.944 -3.166,13.794" />
          </g>
          <g
             transform="translate(1949.2354,1065.8474)"
             id="g1157">
            <path
               inkscape:connector-curvature="0"
               id="path1159"
               style="fill:#244584;fill-opacity:1;fill-rule:nonzero;stroke:none"
               d="m 0,0 c 0,-6.66 1.791,-11.905 5.371,-15.736 3.581,-3.832 8.072,-5.748 13.475,-5.748 5.503,0 10.032,1.934 13.587,5.805 3.555,3.868 5.333,9.36 5.333,16.471 0,4.498 -0.76,8.424 -2.28,11.778 -1.52,3.354 -3.745,5.955 -6.671,7.803 -2.928,1.845 -6.213,2.769 -9.856,2.769 -5.177,0 -9.631,-1.777 -13.361,-5.332 C 1.867,14.253 0,8.316 0,0 m -7.538,0.113 c 0,9.172 2.462,16.352 7.387,21.541 4.925,5.187 11.283,7.783 19.072,7.783 5.101,0 9.699,-1.219 13.795,-3.657 4.096,-2.438 7.217,-5.836 9.366,-10.195 2.148,-4.359 3.222,-9.304 3.222,-14.831 0,-5.604 -1.13,-10.616 -3.392,-15.039 -2.261,-4.423 -5.464,-7.77 -9.611,-10.043 -4.146,-2.276 -8.618,-3.412 -13.417,-3.412 -5.203,0 -9.851,1.256 -13.947,3.769 -4.096,2.511 -7.197,5.942 -9.308,10.29 -2.111,4.346 -3.167,8.944 -3.167,13.794" />
          </g>
          <g
             transform="translate(2145.3457,1039.0496)"
             id="g1161">
            <path
               inkscape:connector-curvature="0"
               id="path1163"
               style="fill:#244584;fill-opacity:1;fill-rule:nonzero;stroke:none"
               d="M 0,0 V 55.254 H 7.312 V 6.52 H 34.525 V 0 Z" />
          </g>
          <g
             transform="translate(2195.5891,1065.8474)"
             id="g1165">
            <path
               inkscape:connector-curvature="0"
               id="path1167"
               style="fill:#244584;fill-opacity:1;fill-rule:nonzero;stroke:none"
               d="m 0,0 c 0,-6.66 1.791,-11.905 5.371,-15.736 3.581,-3.832 8.072,-5.748 13.475,-5.748 5.503,0 10.03,1.934 13.587,5.805 3.555,3.868 5.333,9.36 5.333,16.471 0,4.498 -0.76,8.424 -2.28,11.778 -1.52,3.354 -3.745,5.955 -6.671,7.803 -2.928,1.845 -6.214,2.769 -9.857,2.769 -5.176,0 -9.629,-1.777 -13.36,-5.332 C 1.867,14.253 0,8.316 0,0 m -7.538,0.113 c 0,9.172 2.463,16.352 7.387,21.541 4.926,5.187 11.283,7.783 19.072,7.783 5.1,0 9.699,-1.219 13.795,-3.657 4.096,-2.438 7.217,-5.836 9.366,-10.195 2.149,-4.359 3.222,-9.304 3.222,-14.831 0,-5.604 -1.13,-10.616 -3.392,-15.039 -2.262,-4.423 -5.464,-7.77 -9.611,-10.043 -4.146,-2.276 -8.62,-3.412 -13.417,-3.412 -5.201,0 -9.851,1.256 -13.947,3.769 -4.096,2.511 -7.197,5.942 -9.308,10.29 -2.111,4.346 -3.167,8.944 -3.167,13.794" />
          </g>
          <g
             transform="translate(2277.8708,1060.7218)"
             id="g1169">
            <path
               inkscape:connector-curvature="0"
               id="path1171"
               style="fill:#244584;fill-opacity:1;fill-rule:nonzero;stroke:none"
               d="M 0,0 V 6.482 L 23.405,6.52 v -20.504 c -3.594,-2.865 -7.299,-5.018 -11.118,-6.463 -3.82,-1.445 -7.74,-2.167 -11.76,-2.167 -5.428,0 -10.359,1.162 -14.793,3.486 -4.436,2.324 -7.783,5.685 -10.046,10.082 -2.261,4.398 -3.391,9.31 -3.391,14.737 0,5.377 1.124,10.396 3.373,15.057 2.248,4.662 5.484,8.123 9.705,10.384 4.221,2.261 9.084,3.393 14.587,3.393 3.996,0 7.607,-0.647 10.836,-1.941 3.228,-1.295 5.76,-3.098 7.595,-5.409 1.833,-2.312 3.228,-5.328 4.183,-9.045 L 15.98,16.32 c -0.83,2.813 -1.859,5.025 -3.09,6.633 -1.233,1.608 -2.991,2.896 -5.278,3.865 -2.286,0.965 -4.823,1.45 -7.612,1.45 -3.344,0 -6.232,-0.509 -8.669,-1.526 -2.438,-1.017 -4.404,-2.357 -5.898,-4.015 -1.497,-1.658 -2.658,-3.481 -3.487,-5.465 -1.408,-3.418 -2.112,-7.122 -2.112,-11.117 0,-4.927 0.848,-9.047 2.544,-12.364 1.698,-3.317 4.165,-5.78 7.407,-7.388 3.242,-1.609 6.683,-2.411 10.327,-2.411 3.167,0 6.257,0.608 9.272,1.827 3.015,1.219 5.301,2.519 6.86,3.902 V 0 Z" />
          </g>
          <g
             transform="translate(2329.3198,1039.0496)"
             id="g1173">
            <path
               inkscape:connector-curvature="0"
               id="path1175"
               style="fill:#244584;fill-opacity:1;fill-rule:nonzero;stroke:none"
               d="M 0,0 V 23.406 L -21.295,55.254 H -12.4 L -1.508,38.596 c 2.01,-3.116 3.882,-6.232 5.616,-9.348 1.659,2.889 3.669,6.143 6.032,9.762 l 10.704,16.244 h 8.517 L 7.312,23.406 V 0 Z" />
          </g>
          <g
             transform="translate(2434.75,1039.0496)"
             id="g1177">
            <path
               inkscape:connector-curvature="0"
               id="path1179"
               style="fill:#244584;fill-opacity:1;fill-rule:nonzero;stroke:none"
               d="M 0,0 V 55.254 H 11.006 L 24.084,16.131 c 1.206,-3.644 2.086,-6.369 2.638,-8.178 0.628,2.01 1.607,4.962 2.941,8.857 l 13.229,38.444 h 9.837 V 0 H 45.681 V 46.246 L 29.624,0 H 23.029 L 7.048,47.037 V 0 Z" />
          </g>
          <g
             transform="translate(2501.1257,1039.0496)"
             id="g1181">
            <path
               inkscape:connector-curvature="0"
               id="path1183"
               style="fill:#244584;fill-opacity:1;fill-rule:nonzero;stroke:none"
               d="M 0,0 V 55.254 H 39.952 V 48.733 H 7.311 V 31.811 H 37.879 V 25.328 H 7.311 V 6.52 H 41.233 V 0 Z" />
          </g>
          <g
             transform="translate(2561.4705,1045.5698)"
             id="g1185">
            <path
               inkscape:connector-curvature="0"
               id="path1187"
               style="fill:#244584;fill-opacity:1;fill-rule:nonzero;stroke:none"
               d="m 0,0 h 11.798 c 3.643,0 6.501,0.339 8.575,1.017 2.072,0.679 3.724,1.634 4.956,2.865 1.733,1.734 3.084,4.065 4.051,6.993 0.968,2.926 1.452,6.476 1.452,10.647 0,5.778 -0.95,10.221 -2.847,13.323 -1.896,3.103 -4.202,5.183 -6.915,6.239 -1.961,0.752 -5.113,1.13 -9.461,1.13 H 0 Z m -7.311,-6.52 v 55.253 h 19.033 c 4.296,0 7.575,-0.264 9.837,-0.79 3.167,-0.729 5.867,-2.048 8.104,-3.957 2.914,-2.464 5.094,-5.61 6.539,-9.442 1.445,-3.832 2.167,-8.211 2.167,-13.136 0,-4.195 -0.491,-7.915 -1.47,-11.155 C 35.919,7.011 34.662,4.329 33.131,2.205 31.597,0.081 29.921,-1.589 28.099,-2.808 26.277,-4.026 24.078,-4.951 21.503,-5.579 18.926,-6.206 15.968,-6.52 12.627,-6.52 Z" />
          </g>
          <path
             inkscape:connector-curvature="0"
             id="path1189"
             style="fill:#244584;fill-opacity:1;fill-rule:nonzero;stroke:none"
             d="m 2612.845,1094.304 h 7.311 v -55.255 h -7.311 z" />
          <g
             transform="translate(2674.1707,1058.423)"
             id="g1191">
            <path
               inkscape:connector-curvature="0"
               id="path1193"
               style="fill:#244584;fill-opacity:1;fill-rule:nonzero;stroke:none"
               d="m 0,0 7.311,-1.847 c -1.533,-6.006 -4.29,-10.586 -8.272,-13.738 -3.984,-3.154 -8.852,-4.731 -14.606,-4.731 -5.955,0 -10.799,1.213 -14.529,3.638 -3.731,2.424 -6.572,5.936 -8.518,10.533 -1.949,4.599 -2.922,9.537 -2.922,14.813 0,5.753 1.099,10.774 3.297,15.058 2.2,4.284 5.328,7.538 9.386,9.762 4.059,2.223 8.525,3.336 13.4,3.336 5.526,0 10.176,-1.408 13.945,-4.222 C 2.26,29.787 4.886,25.831 6.369,20.729 L -0.83,19.033 c -1.281,4.02 -3.141,6.949 -5.579,8.782 -2.437,1.834 -5.503,2.751 -9.195,2.751 -4.248,0 -7.796,-1.017 -10.648,-3.053 -2.851,-2.035 -4.856,-4.768 -6.013,-8.197 -1.155,-3.429 -1.732,-6.967 -1.732,-10.611 0,-4.698 0.684,-8.8 2.054,-12.305 1.369,-3.506 3.499,-6.125 6.387,-7.858 2.891,-1.735 6.018,-2.601 9.385,-2.601 4.097,0 7.564,1.18 10.404,3.543 C -2.928,-8.155 -1.007,-4.65 0,0" />
          </g>
          <g
             transform="translate(2702.0625,1061.7391)"
             id="g1195">
            <path
               inkscape:connector-curvature="0"
               id="path1197"
               style="fill:#244584;fill-opacity:1;fill-rule:nonzero;stroke:none"
               d="M 0,0 H 18.733 L 12.966,15.302 C 11.206,19.952 9.899,23.77 9.047,26.762 8.342,23.218 7.35,19.7 6.069,16.207 Z M -15.943,-22.69 5.276,32.565 h 7.879 L 35.769,-22.69 H 27.44 L 20.995,-5.954 H -2.11 L -8.178,-22.69 Z" />
          </g>
          <g
             transform="translate(2745.0708,1039.0496)"
             id="g1199">
            <path
               inkscape:connector-curvature="0"
               id="path1201"
               style="fill:#244584;fill-opacity:1;fill-rule:nonzero;stroke:none"
               d="M 0,0 V 55.254 H 7.311 V 6.52 H 34.524 V 0 Z" />
          </g>
          <g
             transform="translate(2836.1355,1060.7218)"
             id="g1203">
            <path
               inkscape:connector-curvature="0"
               id="path1205"
               style="fill:#244584;fill-opacity:1;fill-rule:nonzero;stroke:none"
               d="M 0,0 V 6.482 L 23.405,6.52 v -20.504 c -3.594,-2.865 -7.299,-5.018 -11.118,-6.463 -3.82,-1.445 -7.74,-2.167 -11.76,-2.167 -5.428,0 -10.359,1.162 -14.793,3.486 -4.436,2.324 -7.783,5.685 -10.046,10.082 -2.261,4.398 -3.391,9.31 -3.391,14.737 0,5.377 1.124,10.396 3.374,15.057 2.247,4.662 5.483,8.123 9.704,10.384 4.221,2.261 9.085,3.393 14.588,3.393 3.995,0 7.606,-0.647 10.835,-1.941 3.228,-1.295 5.761,-3.098 7.595,-5.409 1.833,-2.312 3.229,-5.328 4.183,-9.045 L 15.98,16.32 c -0.83,2.813 -1.859,5.025 -3.09,6.633 -1.233,1.608 -2.991,2.896 -5.277,3.865 -2.287,0.965 -4.824,1.45 -7.613,1.45 -3.344,0 -6.232,-0.509 -8.669,-1.526 -2.438,-1.017 -4.404,-2.357 -5.898,-4.015 -1.497,-1.658 -2.658,-3.481 -3.487,-5.465 -1.408,-3.418 -2.112,-7.122 -2.112,-11.117 0,-4.927 0.848,-9.047 2.544,-12.364 1.698,-3.317 4.165,-5.78 7.407,-7.388 3.242,-1.609 6.683,-2.411 10.327,-2.411 3.167,0 6.257,0.608 9.273,1.827 3.014,1.219 5.301,2.519 6.859,3.902 V 0 Z" />
          </g>
          <g
             transform="translate(2872.1709,1039.0496)"
             id="g1207">
            <path
               inkscape:connector-curvature="0"
               id="path1209"
               style="fill:#244584;fill-opacity:1;fill-rule:nonzero;stroke:none"
               d="M 0,0 V 55.254 H 39.952 V 48.733 H 7.311 V 31.811 H 37.879 V 25.328 H 7.311 V 6.52 H 41.233 V 0 Z" />
          </g>
          <g
             transform="translate(2925.1277,1039.0496)"
             id="g1211">
            <path
               inkscape:connector-curvature="0"
               id="path1213"
               style="fill:#244584;fill-opacity:1;fill-rule:nonzero;stroke:none"
               d="M 0,0 V 55.254 H 7.5 L 36.523,11.872 v 43.382 h 7.01 V 0 H 36.032 L 7.011,43.42 V 0 Z" />
          </g>
          <g
             transform="translate(2982.7976,1039.0496)"
             id="g1215">
            <path
               inkscape:connector-curvature="0"
               id="path1217"
               style="fill:#244584;fill-opacity:1;fill-rule:nonzero;stroke:none"
               d="M 0,0 V 55.254 H 39.952 V 48.733 H 7.311 V 31.811 H 37.878 V 25.328 H 7.311 V 6.52 H 41.233 V 0 Z" />
          </g>
          <g
             transform="translate(3049.8877,1039.0496)"
             id="g1219">
            <path
               inkscape:connector-curvature="0"
               id="path1221"
               style="fill:#244584;fill-opacity:1;fill-rule:nonzero;stroke:none"
               d="m 0,0 v 48.733 h -18.204 v 6.521 H 25.592 V 48.733 H 7.312 V 0 Z" />
          </g>
          <path
             inkscape:connector-curvature="0"
             id="path1223"
             style="fill:#244584;fill-opacity:1;fill-rule:nonzero;stroke:none"
             d="m 3085.922,1094.304 h 7.311 v -55.255 h -7.311 z" />
          <g
             transform="translate(3147.2485,1058.423)"
             id="g1225">
            <path
               inkscape:connector-curvature="0"
               id="path1227"
               style="fill:#244584;fill-opacity:1;fill-rule:nonzero;stroke:none"
               d="m 0,0 7.311,-1.847 c -1.533,-6.006 -4.29,-10.586 -8.272,-13.738 -3.984,-3.154 -8.852,-4.731 -14.606,-4.731 -5.955,0 -10.799,1.213 -14.529,3.638 -3.731,2.424 -6.572,5.936 -8.518,10.533 -1.949,4.599 -2.922,9.537 -2.922,14.813 0,5.753 1.099,10.774 3.297,15.058 2.2,4.284 5.328,7.538 9.386,9.762 4.059,2.223 8.525,3.336 13.4,3.336 5.526,0 10.176,-1.408 13.945,-4.222 C 2.26,29.787 4.886,25.831 6.369,20.729 L -0.83,19.033 c -1.281,4.02 -3.141,6.949 -5.579,8.782 -2.437,1.834 -5.503,2.751 -9.195,2.751 -4.248,0 -7.796,-1.017 -10.648,-3.053 -2.851,-2.035 -4.856,-4.768 -6.013,-8.197 -1.155,-3.429 -1.732,-6.967 -1.732,-10.611 0,-4.698 0.684,-8.8 2.054,-12.305 1.369,-3.506 3.499,-6.125 6.387,-7.858 2.891,-1.735 6.018,-2.601 9.385,-2.601 4.097,0 7.564,1.18 10.404,3.543 C -2.928,-8.155 -1.007,-4.65 0,0" />
          </g>
          <g
             transform="translate(3162.7776,1056.802)"
             id="g1229">
            <path
               inkscape:connector-curvature="0"
               id="path1231"
               style="fill:#244584;fill-opacity:1;fill-rule:nonzero;stroke:none"
               d="m 0,0 6.897,0.602 c 0.327,-2.763 1.087,-5.031 2.281,-6.803 1.194,-1.771 3.048,-3.204 5.56,-4.296 2.512,-1.093 5.338,-1.639 8.48,-1.639 2.789,0 5.252,0.415 7.388,1.243 2.135,0.829 3.725,1.966 4.768,3.411 1.042,1.444 1.564,3.022 1.564,4.731 0,1.734 -0.504,3.246 -1.508,4.541 -1.006,1.294 -2.664,2.381 -4.976,3.261 -1.483,0.578 -4.761,1.475 -9.837,2.695 -5.075,1.217 -8.63,2.368 -10.667,3.448 -2.638,1.382 -4.604,3.096 -5.898,5.144 -1.294,2.048 -1.941,4.341 -1.941,6.88 0,2.789 0.791,5.396 2.375,7.82 1.583,2.425 3.894,4.265 6.935,5.522 3.039,1.256 6.419,1.885 10.14,1.885 4.094,0 7.706,-0.66 10.835,-1.978 3.129,-1.32 5.534,-3.263 7.217,-5.825 1.684,-2.563 2.588,-5.465 2.714,-8.705 l -7.011,-0.529 c -0.376,3.492 -1.652,6.131 -3.825,7.914 -2.173,1.785 -5.383,2.677 -9.63,2.677 -4.423,0 -7.645,-0.811 -9.668,-2.43 -2.022,-1.621 -3.033,-3.576 -3.033,-5.863 0,-1.984 0.715,-3.617 2.147,-4.899 1.407,-1.281 5.082,-2.594 11.025,-3.938 5.941,-1.344 10.02,-2.52 12.231,-3.525 3.216,-1.482 5.591,-3.36 7.124,-5.635 1.532,-2.274 2.299,-4.893 2.299,-7.857 0,-2.94 -0.843,-5.711 -2.526,-8.312 -1.684,-2.6 -4.102,-4.623 -7.255,-6.068 -3.154,-1.445 -6.703,-2.167 -10.648,-2.167 -5,0 -9.19,0.729 -12.57,2.186 -3.379,1.457 -6.03,3.65 -7.951,6.577 C 1.113,-7.005 0.101,-3.694 0,0" />
          </g>
          <g
             transform="translate(1696.5465,1103.8151)"
             id="g1233">
            <path
               inkscape:connector-curvature="0"
               id="path1235"
               style="fill:#244584;fill-opacity:1;fill-rule:nonzero;stroke:none"
               d="M 0,0 V -84.518" />
          </g>
          <path
             inkscape:connector-curvature="0"
             id="path1237"
             style="fill:#244584;fill-opacity:1;fill-rule:nonzero;stroke:none"
             d="m 1698.992,1019.298 h -4.89 v 84.516 h 4.89 z" />
          <g
             transform="translate(2397.3044,1103.8151)"
             id="g1239">
            <path
               inkscape:connector-curvature="0"
               id="path1241"
               style="fill:#244584;fill-opacity:1;fill-rule:nonzero;stroke:none"
               d="M 0,0 V -84.518" />
          </g>
          <path
             inkscape:connector-curvature="0"
             id="path1243"
             style="fill:#244584;fill-opacity:1;fill-rule:nonzero;stroke:none"
             d="m 2399.749,1019.298 h -4.89 v 84.516 h 4.89 z" />
        </g>
      </g>
    </g>
  </g>
</svg>
